# xmcd
#
# Track frame offsets:
#	187
#	5112
#	27937
#	52837
#	66375
#	87087
#	111562
#	131162
#	153325
#	171475
#	189737
#	212975
#	237625
#	257275
#	280675
#	304162
#	319240
#
# Disc length: 4275 seconds
#
# Revision: 1
# Processed by: cddbd v1.5.1PL0 Copyright (c) Steve Scherf et al.
# Submitted via: CDex 1.50Beta5
#
DISCID=fc10b111
DTITLE=インストゥルメンタル - LOVE NOTES
DYEAR=1993
DGENRE=
TTITLE0=インストゥルメンタル/J-WAVEジングル
TTITLE1=ケニー・G/ソングバード
TTITLE2=ホイットニー・ヒューストン/ラブ・オブ・ユー
TTITLE3=トゥーツ・シールマンス/フェリシアとビアンカ
TTITLE4=リサ・スタンスフィールド/リトル・モア・ラブ
TTITLE5=ジョナサン・バトラー/カラーズ
TTITLE6=キャンディ・ダルファー/リリィ・ワズ・ヒア
TTITLE7=アニー・レノックス/ホワイ
TTITLE8=ジョン・ピザレリ/スプレンディド・スプリンター
TTITLE9=クラナド/キング・オブ・ユニバース
TTITLE10=ヤニー/スウェプト
TTITLE11=ディオンヌ・ワーウィック/フレンズ・キャン・ビー・ラバーズ
TTITLE12=ウォーレン・ヒル/パッション・テーマ
TTITLE13=ウォーレン・ヒル/オールウェイズ・ア・パート・オブ・ミー
TTITLE14=マリオン・メドウズ/ウィッシング
TTITLE15=アラン・パーソンズ・プロジェクト/運命の切り札
TTITLE16=インストゥルメンタル/J-WAVEジングル
EXTD=
EXTT0=
EXTT1=
EXTT2=
EXTT3=
EXTT4=
EXTT5=
EXTT6=
EXTT7=
EXTT8=
EXTT9=
EXTT10=
EXTT11=
EXTT12=
EXTT13=
EXTT14=
EXTT15=
EXTT16=
PLAYORDER=
